<?xml version="1.0" standalone="no"?>
<!DOCTYPE svg PUBLIC "-//W3C//DTD SVG 20010904//EN"
 "http://www.w3.org/TR/2001/REC-SVG-20010904/DTD/svg10.dtd">
<svg version="1.0" xmlns="http://www.w3.org/2000/svg"
 width="512.000000pt" height="512.000000pt" viewBox="0 0 512.000000 512.000000"
 preserveAspectRatio="xMidYMid meet">

<g transform="translate(0.000000,512.000000) scale(0.100000,-0.100000)"
fill="#000000" stroke="none">
<path d="M2482 5055 c-123 -27 -252 -108 -324 -203 -38 -49 -90 -153 -102
-204 -5 -21 -13 -27 -38 -30 -64 -6 -71 -84 -10 -103 29 -8 32 -13 32 -50 0
-40 -2 -43 -69 -88 -201 -138 -359 -364 -429 -614 -26 -94 -27 -108 -27 -328
0 -194 3 -241 19 -298 17 -62 17 -69 3 -85 -92 -101 -36 -288 97 -324 l43 -11
7 -82 c18 -237 141 -466 329 -612 l57 -44 0 -189 0 -188 -367 -5 c-413 -5
-426 -6 -567 -80 -136 -70 -242 -194 -305 -355 l-26 -67 -3 -505 -3 -505 22
-17 c20 -17 118 -18 1738 -18 1537 0 1719 2 1739 16 l22 15 0 482 c0 533 -1
540 -64 672 -63 129 -162 229 -291 293 -124 62 -146 65 -547 69 l-368 5 0 201
0 202 64 57 c182 163 286 398 286 646 0 76 2 84 18 79 9 -3 58 -22 107 -41
101 -40 127 -43 149 -20 14 14 16 67 16 442 -1 459 -5 512 -54 659 -31 92 -76
185 -131 268 -57 87 -188 219 -278 283 -53 37 -76 59 -73 69 3 8 6 26 6 39 0
37 40 32 67 -10 29 -45 83 -69 143 -64 193 19 182 308 -12 308 -60 0 -98 -19
-134 -66 -20 -26 -33 -34 -51 -32 -20 2 -28 14 -46 68 -29 88 -76 157 -152
229 -134 125 -314 175 -493 136z m902 -467 c21 -30 4 -60 -31 -56 -38 4 -52
32 -29 57 24 27 41 26 60 -1z m-924 -171 c-263 -131 -446 -336 -536 -601 -27
-78 -54 -211 -54 -263 0 -27 -10 -46 -45 -86 -58 -65 -110 -171 -132 -264 -10
-40 -20 -73 -24 -73 -28 0 -53 214 -44 370 10 177 38 287 105 420 156 309 437
498 805 538 6 1 -28 -18 -75 -41z m-55 -889 c166 -224 455 -459 764 -621 l113
-60 -4 -146 c-4 -126 -8 -157 -32 -226 -40 -118 -98 -209 -190 -300 -169 -167
-416 -245 -643 -202 -158 30 -277 93 -394 207 -140 138 -208 292 -216 490 -6
144 -13 156 -89 162 -47 4 -62 10 -81 32 -27 32 -30 81 -8 113 16 23 70 43
117 43 35 0 58 33 58 85 0 94 53 217 128 297 63 67 175 135 290 175 54 18 104
33 112 32 8 0 42 -36 75 -81z m535 -1785 l0 -188 -67 -222 -68 -223 -46 -15
c-108 -36 -290 -36 -398 0 l-46 15 -68 223 -67 222 0 178 c0 97 4 177 8 177 5
0 41 -11 80 -24 191 -65 409 -58 590 18 32 13 63 24 70 25 9 1 12 -43 12 -186z
m-1145 -273 l281 0 197 -643 c108 -353 197 -646 197 -650 0 -4 -349 -7 -775
-7 l-775 0 0 433 c0 465 2 480 55 588 87 179 297 300 490 283 28 -2 176 -4
330 -4z m2020 -15 c32 -9 81 -28 109 -43 71 -37 187 -155 219 -222 55 -114 57
-139 57 -597 l0 -423 -776 0 -776 0 5 21 c3 12 93 305 199 650 l192 629 356 0
c287 0 367 -3 415 -15z"/>
<path d="M3220 789 c-30 -12 -40 -26 -40 -61 0 -57 5 -58 315 -58 310 0 315 1
315 58 0 35 -10 49 -43 61 -36 14 -513 14 -547 0z"/>
</g>
</svg>
